<?xml version="1.0" encoding="utf-8"?>
<!-- Generator: Adobe Illustrator 28.0.0, SVG Export Plug-In . SVG Version: 6.00 Build 0)  -->
<svg version="1.1" id="Layer_1" xmlns="http://www.w3.org/2000/svg" xmlns:xlink="http://www.w3.org/1999/xlink" x="0px" y="0px"
	 width="300px" height="300px" viewBox="0 0 300 300" style="enable-background:new 0 0 300 300;" xml:space="preserve">
<g id="yzIWzy_00000176003897163216699730000010001642119425549210_">
	<g>
		<path d="M25.1,25.1c27.8,0,55.5,0,83.2,0c0,9.2,0,18.4,0,27.7c-18.5,0-36.9,0-55.5,0c0,18.6,0,37,0,55.5c-9.3,0-18.5,0-27.7,0
			C25.1,80.6,25.1,52.9,25.1,25.1z"/>
		<path d="M274.9,108.3c-9.3,0-18.4,0-27.7,0c0-18.5,0-36.9,0-55.5c-18.5,0-37,0-55.5,0c0-9.3,0-18.5,0-27.8c27.7,0,55.4,0,83.2,0
			C274.9,52.8,274.9,80.5,274.9,108.3z"/>
		<path d="M52.7,247.3c18.6,0,37.1,0,55.5,0c0,9.3,0,18.4,0,27.7c-27.7,0-55.4,0-83.2,0c0-27.7,0-55.4,0-83.2c9.2,0,18.4,0,27.7,0
			C52.7,210.2,52.7,228.7,52.7,247.3z"/>
		<path d="M191.7,274.9c0-9.2,0-18.4,0-27.7c18.5,0,36.9,0,55.5,0c0-18.5,0-37,0-55.5c9.3,0,18.5,0,27.8,0c0,27.7,0,55.4,0,83.2
			C247.2,274.9,219.5,274.9,191.7,274.9z"/>
	</g>
</g>
</svg>
