<?xml version="1.0" encoding="UTF-8"?>
<svg id="a" data-name="Layer 1" xmlns="http://www.w3.org/2000/svg" width="449.837" height="449.837" viewBox="0 0 449.837 449.837">
  <line x1="2.227" y1="2.227" x2="447.61" y2="2.227" fill="none" stroke="#231f20" stroke-miterlimit="10" stroke-width="4.454"/>
  <line x1="2.227" y1="421.411" x2="447.61" y2="421.411" fill="none" stroke="#231f20" stroke-miterlimit="10" stroke-width="4.454"/>
  <line x1="2.227" y1="395.212" x2="447.61" y2="395.212" fill="none" stroke="#231f20" stroke-miterlimit="10" stroke-width="4.454"/>
  <line x1="2.227" y1="369.013" x2="447.61" y2="369.013" fill="none" stroke="#231f20" stroke-miterlimit="10" stroke-width="4.454"/>
  <line x1="2.227" y1="342.814" x2="447.61" y2="342.814" fill="none" stroke="#231f20" stroke-miterlimit="10" stroke-width="4.454"/>
  <line x1="2.227" y1="316.615" x2="447.61" y2="316.615" fill="none" stroke="#231f20" stroke-miterlimit="10" stroke-width="4.454"/>
  <line x1="2.227" y1="290.416" x2="447.61" y2="290.416" fill="none" stroke="#231f20" stroke-miterlimit="10" stroke-width="4.454"/>
  <line x1="2.227" y1="264.217" x2="447.61" y2="264.217" fill="none" stroke="#231f20" stroke-miterlimit="10" stroke-width="4.454"/>
  <line x1="2.227" y1="238.018" x2="447.61" y2="238.018" fill="none" stroke="#231f20" stroke-miterlimit="10" stroke-width="4.454"/>
  <line x1="2.227" y1="211.819" x2="447.61" y2="211.819" fill="none" stroke="#231f20" stroke-miterlimit="10" stroke-width="4.454"/>
  <line x1="2.227" y1="185.62" x2="447.61" y2="185.62" fill="none" stroke="#231f20" stroke-miterlimit="10" stroke-width="4.454"/>
  <line x1="2.227" y1="159.421" x2="447.61" y2="159.421" fill="none" stroke="#231f20" stroke-miterlimit="10" stroke-width="4.454"/>
  <line x1="2.227" y1="133.222" x2="447.61" y2="133.222" fill="none" stroke="#231f20" stroke-miterlimit="10" stroke-width="4.454"/>
  <line x1="2.227" y1="107.023" x2="447.61" y2="107.023" fill="none" stroke="#231f20" stroke-miterlimit="10" stroke-width="4.454"/>
  <line x1="2.227" y1="80.824" x2="447.61" y2="80.824" fill="none" stroke="#231f20" stroke-miterlimit="10" stroke-width="4.454"/>
  <line x1="2.227" y1="54.625" x2="447.61" y2="54.625" fill="none" stroke="#231f20" stroke-miterlimit="10" stroke-width="4.454"/>
  <line x1="2.227" y1="28.426" x2="447.61" y2="28.426" fill="none" stroke="#231f20" stroke-miterlimit="10" stroke-width="4.454"/>
  <line x1="2.227" y1="447.61" x2="447.61" y2="447.61" fill="none" stroke="#231f20" stroke-miterlimit="10" stroke-width="4.454"/>
  <line x1="2.227" y1="2.227" x2="2.227" y2="447.61" fill="none" stroke="#231f20" stroke-miterlimit="10" stroke-width="4.454"/>
  <line x1="419.773" y1="2.227" x2="419.773" y2="447.61" fill="none" stroke="#231f20" stroke-miterlimit="10" stroke-width="4.454"/>
  <line x1="391.937" y1="2.227" x2="391.937" y2="447.61" fill="none" stroke="#231f20" stroke-miterlimit="10" stroke-width="4.454"/>
  <line x1="364.1" y1="2.227" x2="364.1" y2="447.61" fill="none" stroke="#231f20" stroke-miterlimit="10" stroke-width="4.454"/>
  <line x1="336.264" y1="2.227" x2="336.264" y2="447.61" fill="none" stroke="#231f20" stroke-miterlimit="10" stroke-width="4.454"/>
  <line x1="308.428" y1="2.227" x2="308.428" y2="447.61" fill="none" stroke="#231f20" stroke-miterlimit="10" stroke-width="4.454"/>
  <line x1="280.591" y1="2.227" x2="280.591" y2="447.61" fill="none" stroke="#231f20" stroke-miterlimit="10" stroke-width="4.454"/>
  <line x1="252.755" y1="2.227" x2="252.755" y2="447.61" fill="none" stroke="#231f20" stroke-miterlimit="10" stroke-width="4.454"/>
  <line x1="224.918" y1="2.227" x2="224.918" y2="447.61" fill="none" stroke="#231f20" stroke-miterlimit="10" stroke-width="4.454"/>
  <line x1="197.082" y1="2.227" x2="197.082" y2="447.61" fill="none" stroke="#231f20" stroke-miterlimit="10" stroke-width="4.454"/>
  <line x1="169.245" y1="2.227" x2="169.245" y2="447.61" fill="none" stroke="#231f20" stroke-miterlimit="10" stroke-width="4.454"/>
  <line x1="141.409" y1="2.227" x2="141.409" y2="447.61" fill="none" stroke="#231f20" stroke-miterlimit="10" stroke-width="4.454"/>
  <line x1="113.573" y1="2.227" x2="113.573" y2="447.61" fill="none" stroke="#231f20" stroke-miterlimit="10" stroke-width="4.454"/>
  <line x1="85.736" y1="2.227" x2="85.736" y2="447.61" fill="none" stroke="#231f20" stroke-miterlimit="10" stroke-width="4.454"/>
  <line x1="57.9" y1="2.227" x2="57.9" y2="447.61" fill="none" stroke="#231f20" stroke-miterlimit="10" stroke-width="4.454"/>
  <line x1="30.063" y1="2.227" x2="30.063" y2="447.61" fill="none" stroke="#231f20" stroke-miterlimit="10" stroke-width="4.454"/>
  <line x1="447.61" y1="2.227" x2="447.61" y2="447.61" fill="none" stroke="#231f20" stroke-miterlimit="10" stroke-width="4.454"/>
</svg>